<?xml version="1.0" standalone="no"?>
<!DOCTYPE svg PUBLIC "-//W3C//DTD SVG 20010904//EN"
 "http://www.w3.org/TR/2001/REC-SVG-20010904/DTD/svg10.dtd">
<svg version="1.0" xmlns="http://www.w3.org/2000/svg"
 width="8000.000000pt" height="8000.000000pt" viewBox="0 0 8000.000000 8000.000000"
 preserveAspectRatio="xMidYMid meet">

<g transform="translate(0.000000,8000.000000) scale(0.100000,-0.100000)"
fill="#F62640" stroke="none">
<path d="M52600 66933 c-1728 -31 -3455 -377 -5075 -1018 -1695 -670 -3216
-1622 -4615 -2890 -235 -213 -805 -784 -1021 -1025 -710 -788 -1330 -1622
-1835 -2467 -27 -45 -51 -82 -54 -82 -3 0 -27 37 -54 82 -419 701 -988 1490
-1526 2117 -488 568 -1099 1183 -1637 1647 -1095 945 -2290 1716 -3563 2301
-1454 668 -3028 1098 -4594 1257 -132 13 -279 27 -326 30 -47 3 -105 8 -130
10 -240 22 -504 30 -1050 30 -605 0 -750 -5 -1185 -40 -1346 -109 -2668 -404
-3935 -878 -1054 -394 -2075 -917 -3009 -1540 -709 -473 -1312 -949 -1946
-1537 -232 -216 -735 -725 -937 -950 -836 -931 -1535 -1915 -2128 -2995 -101
-184 -368 -709 -443 -870 -110 -240 -133 -291 -217 -485 -527 -1224 -892
-2481 -1109 -3820 -37 -226 -81 -540 -96 -685 -4 -33 -8 -71 -10 -85 -17 -111
-61 -619 -70 -800 -4 -69 -8 -135 -10 -147 -25 -165 -25 -1636 0 -1958 2 -27
6 -106 10 -175 7 -135 9 -169 25 -390 36 -492 86 -960 151 -1425 654 -4663
2792 -9110 6404 -13320 1029 -1198 2199 -2399 3425 -3514 368 -335 393 -357
696 -622 2819 -2466 6128 -4770 9844 -6856 2331 -1309 4928 -2569 7043 -3419
197 -79 367 -144 377 -144 22 0 611 235 995 397 2042 862 4329 1989 6425 3166
3715 2085 7031 4395 9844 6856 1276 1116 2469 2286 3520 3451 4076 4517 6437
9328 7056 14375 156 1268 201 2647 125 3780 -121 1801 -531 3542 -1223 5195
-268 640 -646 1392 -997 1980 -1219 2044 -2860 3767 -4805 5045 -2143 1408
-4569 2223 -7115 2390 -243 16 -862 36 -1005 33 -47 -1 -146 -3 -220 -5z
m-24575 -3682 c446 -23 1058 -69 1210 -91 337 -49 517 -424 353 -732 -38 -71
-128 -157 -200 -191 -29 -13 -156 -56 -283 -95 -1075 -332 -2196 -799 -3175
-1324 -1974 -1058 -3686 -2441 -5188 -4188 -848 -987 -1652 -2143 -2329 -3350
-659 -1173 -1255 -2508 -1678 -3751 -65 -191 -93 -248 -156 -314 -145 -154
-391 -190 -593 -88 -60 31 -149 113 -182 169 -59 101 -73 191 -124 799 -56
672 -74 1136 -74 1870 -1 626 6 847 39 1325 197 2814 1047 5061 2540 6710 167
184 550 559 720 705 626 538 1240 940 2000 1311 1531 747 3360 1161 5500 1244
281 11 1345 5 1620 -9z"/>
</g>
</svg>
